<svg width="500" height="500" viewBox="0 0 500 500" fill="none" xmlns="http://www.w3.org/2000/svg">
<path d="M44.1101 500H455.801C480.201 500 500 480.201 500 455.801V44.2001C500 19.8002 480.201 0 455.801 0H44.1101C19.8002 0 0 19.8002 0 44.2001V455.801C0 480.201 19.8002 500 44.1101 500ZM49.9701 60.0005C49.9701 54.4702 54.4498 50.0001 59.9698 50.0001H439.97C445.49 50.0001 449.971 54.4702 449.971 60.0005V255C449.971 260.531 445.49 265 439.97 265H394.971V350.001C394.971 355.53 390.49 360 384.97 360H328.3V440C328.3 445.531 323.83 450 318.3 450H181.64C176.11 450 171.64 445.531 171.64 440V360H114.97C109.45 360 104.97 355.53 104.97 350.001V265H59.9698C54.4498 265 49.9701 260.531 49.9701 255V60.0005V60.0005Z" fill="black"/>
<path d="M382 161C387.52 161 392 156.522 392 151.003V94.9978C392 89.469 387.52 85 382 85C376.48 85 372 89.469 372 94.9978V151.003C372 156.522 376.48 161 382 161Z" fill="black"/>
<path d="M329 161C334.52 161 339 156.522 339 151.003V94.9978C339 89.469 334.52 85 329 85C323.48 85 319 89.469 319 94.9978V151.003C319 156.522 323.48 161 329 161Z" fill="black"/>
<path d="M277 161C282.52 161 287 156.522 287 151.003V94.9978C287 89.469 282.52 85 277 85C271.48 85 267 89.469 267 94.9978V151.003C267 156.522 271.48 161 277 161Z" fill="black"/>
<path d="M223.5 161C229.296 161 234 156.522 234 151.003V94.9978C234 89.469 229.296 85 223.5 85C217.704 85 213 89.469 213 94.9978V151.003C213 156.522 217.704 161 223.5 161Z" fill="black"/>
<path d="M171 161C176.52 161 181 156.522 181 151.003V94.9978C181 89.469 176.52 85 171 85C165.48 85 161 89.469 161 94.9978V151.003C161 156.522 165.48 161 171 161Z" fill="black"/>
<path d="M118 161C123.52 161 128 156.522 128 151.003V94.9978C128 89.469 123.52 85 118 85C112.48 85 108 89.469 108 94.9978V151.003C108 156.522 112.48 161 118 161Z" fill="black"/>
</svg>
