<svg width="500" height="500" viewBox="0 0 500 500" fill="none" xmlns="http://www.w3.org/2000/svg">
<path d="M44.1101 500H455.801C480.201 500 500 480.201 500 455.801V44.2001C500 19.8002 480.201 0 455.801 0H44.1101C19.8002 0 0 19.8002 0 44.2001V455.801C0 480.201 19.8002 500 44.1101 500ZM49.9701 60.0005C49.9701 54.4702 54.4498 50.0001 59.9698 50.0001H439.97C445.49 50.0001 449.971 54.4702 449.971 60.0005V255C449.971 260.531 445.49 265 439.97 265H394.971V350.001C394.971 355.53 390.49 360 384.97 360H328.3V440C328.3 445.531 323.83 450 318.3 450H181.64C176.11 450 171.64 445.531 171.64 440V360H114.97C109.45 360 104.97 355.53 104.97 350.001V265H59.9698C54.4498 265 49.9701 260.531 49.9701 255V60.0005Z" fill="black"/>
<path d="M382 161C387.52 161 392 156.522 392 151.003V94.9978C392 89.469 387.52 85 382 85C376.48 85 372 89.469 372 94.9978V151.003C372 156.522 376.48 161 382 161Z" fill="black"/>
<path d="M329 161C334.52 161 339 156.522 339 151.003V94.9978C339 89.469 334.52 85 329 85C323.48 85 319 89.469 319 94.9978V151.003C319 156.522 323.48 161 329 161Z" fill="black"/>
<path d="M277 161C282.52 161 287 156.522 287 151.003V94.9978C287 89.469 282.52 85 277 85C271.48 85 267 89.469 267 94.9978V151.003C267 156.522 271.48 161 277 161Z" fill="black"/>
<path d="M223.5 161C229.296 161 234 156.522 234 151.003V94.9978C234 89.469 229.296 85 223.5 85C217.704 85 213 89.469 213 94.9978V151.003C213 156.522 217.704 161 223.5 161Z" fill="black"/>
<path d="M171 161C176.52 161 181 156.522 181 151.003V94.9978C181 89.469 176.52 85 171 85C165.48 85 161 89.469 161 94.9978V151.003C161 156.522 165.48 161 171 161Z" fill="black"/>
<path d="M118 161C123.52 161 128 156.522 128 151.003V94.9978C128 89.469 123.52 85 118 85C112.48 85 108 89.469 108 94.9978V151.003C108 156.522 112.48 161 118 161Z" fill="black"/>
<path d="M121.088 212V177.968H117.968C117.744 179.248 117.328 180.304 116.72 181.136C116.112 181.968 115.36 182.624 114.464 183.104C113.6 183.584 112.624 183.92 111.536 184.112C110.448 184.272 109.328 184.352 108.176 184.352V187.616H117.008V212H121.088Z" fill="black"/>
<path d="M159.112 190.016H163.192C163.16 188.992 163.256 187.984 163.48 186.992C163.736 185.968 164.136 185.056 164.68 184.256C165.224 183.456 165.912 182.816 166.744 182.336C167.608 181.824 168.632 181.568 169.816 181.568C170.712 181.568 171.56 181.712 172.36 182C173.16 182.288 173.848 182.704 174.424 183.248C175.032 183.792 175.512 184.448 175.864 185.216C176.216 185.952 176.392 186.784 176.392 187.712C176.392 188.896 176.2 189.936 175.816 190.832C175.464 191.728 174.92 192.56 174.184 193.328C173.48 194.096 172.584 194.864 171.496 195.632C170.408 196.368 169.144 197.184 167.704 198.08C166.52 198.784 165.384 199.536 164.296 200.336C163.208 201.136 162.232 202.064 161.368 203.12C160.504 204.176 159.784 205.424 159.208 206.864C158.664 208.272 158.312 209.984 158.152 212H180.376V208.4H162.904C163.096 207.344 163.496 206.416 164.104 205.616C164.744 204.784 165.496 204.016 166.36 203.312C167.256 202.608 168.232 201.952 169.288 201.344C170.344 200.704 171.4 200.064 172.456 199.424C173.512 198.752 174.536 198.048 175.528 197.312C176.52 196.576 177.4 195.76 178.168 194.864C178.936 193.936 179.544 192.896 179.992 191.744C180.472 190.592 180.712 189.264 180.712 187.76C180.712 186.16 180.424 184.752 179.848 183.536C179.304 182.32 178.552 181.312 177.592 180.512C176.632 179.68 175.496 179.056 174.184 178.64C172.904 178.192 171.528 177.968 170.056 177.968C168.264 177.968 166.664 178.272 165.256 178.88C163.848 179.488 162.664 180.336 161.704 181.424C160.776 182.48 160.088 183.744 159.64 185.216C159.192 186.688 159.016 188.288 159.112 190.016Z" fill="black"/>
<path d="M220.464 192.56V196.016C221.232 195.92 222.048 195.872 222.912 195.872C223.936 195.872 224.88 196.016 225.744 196.304C226.64 196.56 227.408 196.976 228.048 197.552C228.688 198.096 229.2 198.784 229.584 199.616C229.968 200.416 230.16 201.344 230.16 202.4C230.16 203.424 229.952 204.352 229.536 205.184C229.152 205.984 228.624 206.672 227.952 207.248C227.28 207.792 226.496 208.224 225.6 208.544C224.704 208.832 223.76 208.976 222.768 208.976C220.432 208.976 218.656 208.288 217.44 206.912C216.224 205.504 215.584 203.696 215.52 201.488H211.44C211.408 203.248 211.648 204.816 212.16 206.192C212.704 207.568 213.472 208.736 214.464 209.696C215.456 210.624 216.656 211.328 218.064 211.808C219.472 212.288 221.04 212.528 222.768 212.528C224.368 212.528 225.872 212.32 227.28 211.904C228.72 211.456 229.968 210.8 231.024 209.936C232.08 209.072 232.912 208 233.52 206.72C234.16 205.408 234.48 203.904 234.48 202.208C234.48 200.16 233.968 198.384 232.944 196.88C231.952 195.376 230.416 194.4 228.336 193.952V193.856C229.68 193.248 230.8 192.352 231.696 191.168C232.592 189.984 233.04 188.624 233.04 187.088C233.04 185.52 232.768 184.16 232.224 183.008C231.712 181.856 230.992 180.912 230.064 180.176C229.136 179.44 228.032 178.896 226.752 178.544C225.504 178.16 224.144 177.968 222.672 177.968C220.976 177.968 219.472 178.24 218.16 178.784C216.88 179.328 215.808 180.08 214.944 181.04C214.08 182 213.408 183.152 212.928 184.496C212.48 185.84 212.224 187.328 212.16 188.96H216.24C216.24 187.968 216.368 187.024 216.624 186.128C216.88 185.232 217.264 184.448 217.776 183.776C218.32 183.104 218.992 182.576 219.792 182.192C220.624 181.776 221.584 181.568 222.672 181.568C224.4 181.568 225.84 182.032 226.992 182.96C228.144 183.856 228.72 185.216 228.72 187.04C228.72 187.936 228.544 188.736 228.192 189.44C227.84 190.144 227.36 190.736 226.752 191.216C226.176 191.664 225.488 192.016 224.688 192.272C223.92 192.496 223.104 192.608 222.24 192.608H221.376C221.216 192.608 221.056 192.608 220.896 192.608C220.768 192.608 220.624 192.592 220.464 192.56Z" fill="black"/>
<path d="M279.272 200.432H267.848L279.176 183.776H279.272V200.432ZM283.112 200.432V177.968H279.848L264.344 200.096V204.032H279.272V212H283.112V204.032H287.72V200.432H283.112Z" fill="black"/>
<path d="M337.56 182.144V178.544H320.76L317.592 196.208L321.096 196.4C321.896 195.44 322.808 194.672 323.832 194.096C324.888 193.488 326.088 193.184 327.432 193.184C328.584 193.184 329.624 193.376 330.552 193.76C331.512 194.144 332.328 194.688 333 195.392C333.672 196.064 334.184 196.88 334.536 197.84C334.92 198.768 335.112 199.792 335.112 200.912C335.112 202.256 334.92 203.44 334.536 204.464C334.152 205.456 333.624 206.288 332.952 206.96C332.312 207.632 331.544 208.144 330.648 208.496C329.784 208.816 328.872 208.976 327.912 208.976C326.888 208.976 325.944 208.832 325.08 208.544C324.248 208.224 323.512 207.792 322.872 207.248C322.264 206.672 321.768 206.016 321.384 205.28C321.032 204.512 320.824 203.696 320.76 202.832H316.68C316.712 204.368 317.016 205.744 317.592 206.96C318.168 208.176 318.952 209.2 319.944 210.032C320.936 210.832 322.072 211.456 323.352 211.904C324.664 212.32 326.056 212.528 327.528 212.528C329.512 212.528 331.24 212.224 332.712 211.616C334.216 210.976 335.464 210.128 336.456 209.072C337.448 208.016 338.184 206.816 338.664 205.472C339.176 204.096 339.432 202.688 339.432 201.248C339.432 199.296 339.144 197.6 338.568 196.16C337.992 194.688 337.208 193.472 336.216 192.512C335.224 191.52 334.056 190.784 332.712 190.304C331.368 189.824 329.944 189.584 328.44 189.584C327.288 189.584 326.12 189.792 324.936 190.208C323.784 190.592 322.84 191.2 322.104 192.032L322.008 191.936L323.832 182.144H337.56Z" fill="black"/>
<path d="M387.872 186.656H391.952C391.696 183.84 390.736 181.696 389.072 180.224C387.408 178.72 385.168 177.968 382.352 177.968C379.92 177.968 377.904 178.48 376.304 179.504C374.704 180.528 373.424 181.888 372.464 183.584C371.504 185.28 370.816 187.232 370.4 189.44C370.016 191.616 369.824 193.872 369.824 196.208C369.824 198 369.952 199.856 370.208 201.776C370.496 203.696 371.056 205.456 371.888 207.056C372.72 208.656 373.904 209.968 375.44 210.992C376.976 212.016 379.008 212.528 381.536 212.528C383.68 212.528 385.472 212.176 386.912 211.472C388.384 210.736 389.552 209.824 390.416 208.736C391.312 207.616 391.952 206.384 392.336 205.04C392.72 203.696 392.912 202.4 392.912 201.152C392.912 199.584 392.672 198.128 392.192 196.784C391.712 195.44 391.024 194.272 390.128 193.28C389.264 192.288 388.176 191.52 386.864 190.976C385.584 190.4 384.128 190.112 382.496 190.112C380.64 190.112 378.992 190.464 377.552 191.168C376.144 191.872 374.96 193.008 374 194.576L373.904 194.48C373.936 193.168 374.064 191.76 374.288 190.256C374.512 188.752 374.912 187.36 375.488 186.08C376.096 184.768 376.928 183.696 377.984 182.864C379.04 182 380.432 181.568 382.16 181.568C383.792 181.568 385.104 182.032 386.096 182.96C387.088 183.888 387.68 185.12 387.872 186.656ZM381.728 193.712C382.88 193.712 383.888 193.92 384.752 194.336C385.616 194.752 386.336 195.312 386.912 196.016C387.488 196.688 387.904 197.504 388.16 198.464C388.448 199.392 388.592 200.384 388.592 201.44C388.592 202.432 388.432 203.392 388.112 204.32C387.824 205.216 387.392 206.016 386.816 206.72C386.24 207.424 385.52 207.984 384.656 208.4C383.824 208.784 382.848 208.976 381.728 208.976C380.608 208.976 379.6 208.784 378.704 208.4C377.84 207.984 377.104 207.44 376.496 206.768C375.92 206.096 375.472 205.296 375.152 204.368C374.832 203.44 374.672 202.448 374.672 201.392C374.672 200.336 374.816 199.344 375.104 198.416C375.424 197.456 375.888 196.64 376.496 195.968C377.104 195.264 377.84 194.72 378.704 194.336C379.568 193.92 380.576 193.712 381.728 193.712Z" fill="black"/>
</svg>
