<svg width="500" height="500" viewBox="0 0 500 500" fill="none" xmlns="http://www.w3.org/2000/svg">
<path d="M44.1101 500H455.801C480.201 500 500 480.201 500 455.801V44.2001C500 19.8002 480.201 0 455.801 0H44.1101C19.8002 0 0 19.8002 0 44.2001V455.801C0 480.201 19.8002 500 44.1101 500ZM49.9701 60.0005C49.9701 54.4702 54.4498 50.0001 59.9698 50.0001H439.97C445.49 50.0001 449.971 54.4702 449.971 60.0005V255C449.971 260.531 445.49 265 439.97 265H394.971V350.001C394.971 355.53 390.49 360 384.97 360H328.3V440C328.3 445.531 323.83 450 318.3 450H181.64C176.11 450 171.64 445.531 171.64 440V360H114.97C109.45 360 104.97 355.53 104.97 350.001V265H59.9698C54.4498 265 49.9701 260.531 49.9701 255V60.0005Z" fill="black"/>
<path d="M382 161C387.52 161 392 156.522 392 151.003V94.9978C392 89.469 387.52 85 382 85C376.48 85 372 89.469 372 94.9978V151.003C372 156.522 376.48 161 382 161Z" fill="black"/>
<path d="M430 161C435.52 161 440 156.522 440 151.003V94.9978C440 89.469 435.52 85 430 85C424.48 85 420 89.469 420 94.9978V151.003C420 156.522 424.48 161 430 161Z" fill="black"/>
<path d="M329 161C334.52 161 339 156.522 339 151.003V94.9978C339 89.469 334.52 85 329 85C323.48 85 319 89.469 319 94.9978V151.003C319 156.522 323.48 161 329 161Z" fill="black"/>
<path d="M277 161C282.52 161 287 156.522 287 151.003V94.9978C287 89.469 282.52 85 277 85C271.48 85 267 89.469 267 94.9978V151.003C267 156.522 271.48 161 277 161Z" fill="black"/>
<path d="M223.5 161C229.296 161 234 156.522 234 151.003V94.9978C234 89.469 229.296 85 223.5 85C217.704 85 213 89.469 213 94.9978V151.003C213 156.522 217.704 161 223.5 161Z" fill="black"/>
<path d="M171 161C176.52 161 181 156.522 181 151.003V94.9978C181 89.469 176.52 85 171 85C165.48 85 161 89.469 161 94.9978V151.003C161 156.522 165.48 161 171 161Z" fill="black"/>
<path d="M118 161C123.52 161 128 156.522 128 151.003V94.9978C128 89.469 123.52 85 118 85C112.48 85 108 89.469 108 94.9978V151.003C108 156.522 112.48 161 118 161Z" fill="black"/>
<path d="M106.112 190.016H110.192C110.16 188.992 110.256 187.984 110.48 186.992C110.736 185.968 111.136 185.056 111.68 184.256C112.224 183.456 112.912 182.816 113.744 182.336C114.608 181.824 115.632 181.568 116.816 181.568C117.712 181.568 118.56 181.712 119.36 182C120.16 182.288 120.848 182.704 121.424 183.248C122.032 183.792 122.512 184.448 122.864 185.216C123.216 185.952 123.392 186.784 123.392 187.712C123.392 188.896 123.2 189.936 122.816 190.832C122.464 191.728 121.92 192.56 121.184 193.328C120.48 194.096 119.584 194.864 118.496 195.632C117.408 196.368 116.144 197.184 114.704 198.08C113.52 198.784 112.384 199.536 111.296 200.336C110.208 201.136 109.232 202.064 108.368 203.12C107.504 204.176 106.784 205.424 106.208 206.864C105.664 208.272 105.312 209.984 105.152 212H127.376V208.4H109.904C110.096 207.344 110.496 206.416 111.104 205.616C111.744 204.784 112.496 204.016 113.36 203.312C114.256 202.608 115.232 201.952 116.288 201.344C117.344 200.704 118.4 200.064 119.456 199.424C120.512 198.752 121.536 198.048 122.528 197.312C123.52 196.576 124.4 195.76 125.168 194.864C125.936 193.936 126.544 192.896 126.992 191.744C127.472 190.592 127.712 189.264 127.712 187.76C127.712 186.16 127.424 184.752 126.848 183.536C126.304 182.32 125.552 181.312 124.592 180.512C123.632 179.68 122.496 179.056 121.184 178.64C119.904 178.192 118.528 177.968 117.056 177.968C115.264 177.968 113.664 178.272 112.256 178.88C110.848 179.488 109.664 180.336 108.704 181.424C107.776 182.48 107.088 183.744 106.64 185.216C106.192 186.688 106.016 188.288 106.112 190.016Z" fill="black"/>
<path d="M70.0004 161C75.5197 161 80 156.522 80 151.003V94.9978C80 89.469 75.5197 85 70.0004 85C64.4803 85 60 89.469 60 94.9978V151.003C60 156.522 64.4803 161 70.0004 161Z" fill="black"/>
<path d="M73.088 212V177.968H69.968C69.744 179.248 69.328 180.304 68.72 181.136C68.112 181.968 67.36 182.624 66.464 183.104C65.6 183.584 64.624 183.92 63.536 184.112C62.448 184.272 61.328 184.352 60.176 184.352V187.616H69.008V212H73.088Z" fill="black"/>
<path d="M167.464 192.56V196.016C168.232 195.92 169.048 195.872 169.912 195.872C170.936 195.872 171.88 196.016 172.744 196.304C173.64 196.56 174.408 196.976 175.048 197.552C175.688 198.096 176.2 198.784 176.584 199.616C176.968 200.416 177.16 201.344 177.16 202.4C177.16 203.424 176.952 204.352 176.536 205.184C176.152 205.984 175.624 206.672 174.952 207.248C174.28 207.792 173.496 208.224 172.6 208.544C171.704 208.832 170.76 208.976 169.768 208.976C167.432 208.976 165.656 208.288 164.44 206.912C163.224 205.504 162.584 203.696 162.52 201.488H158.44C158.408 203.248 158.648 204.816 159.16 206.192C159.704 207.568 160.472 208.736 161.464 209.696C162.456 210.624 163.656 211.328 165.064 211.808C166.472 212.288 168.04 212.528 169.768 212.528C171.368 212.528 172.872 212.32 174.28 211.904C175.72 211.456 176.968 210.8 178.024 209.936C179.08 209.072 179.912 208 180.52 206.72C181.16 205.408 181.48 203.904 181.48 202.208C181.48 200.16 180.968 198.384 179.944 196.88C178.952 195.376 177.416 194.4 175.336 193.952V193.856C176.68 193.248 177.8 192.352 178.696 191.168C179.592 189.984 180.04 188.624 180.04 187.088C180.04 185.52 179.768 184.16 179.224 183.008C178.712 181.856 177.992 180.912 177.064 180.176C176.136 179.44 175.032 178.896 173.752 178.544C172.504 178.16 171.144 177.968 169.672 177.968C167.976 177.968 166.472 178.24 165.16 178.784C163.88 179.328 162.808 180.08 161.944 181.04C161.08 182 160.408 183.152 159.928 184.496C159.48 185.84 159.224 187.328 159.16 188.96H163.24C163.24 187.968 163.368 187.024 163.624 186.128C163.88 185.232 164.264 184.448 164.776 183.776C165.32 183.104 165.992 182.576 166.792 182.192C167.624 181.776 168.584 181.568 169.672 181.568C171.4 181.568 172.84 182.032 173.992 182.96C175.144 183.856 175.72 185.216 175.72 187.04C175.72 187.936 175.544 188.736 175.192 189.44C174.84 190.144 174.36 190.736 173.752 191.216C173.176 191.664 172.488 192.016 171.688 192.272C170.92 192.496 170.104 192.608 169.24 192.608H168.376C168.216 192.608 168.056 192.608 167.896 192.608C167.768 192.608 167.624 192.592 167.464 192.56Z" fill="black"/>
<path d="M226.272 200.432H214.848L226.176 183.776H226.272V200.432ZM230.112 200.432V177.968H226.848L211.344 200.096V204.032H226.272V212H230.112V204.032H234.72V200.432H230.112Z" fill="black"/>
<path d="M285.56 182.144V178.544H268.76L265.592 196.208L269.096 196.4C269.896 195.44 270.808 194.672 271.832 194.096C272.888 193.488 274.088 193.184 275.432 193.184C276.584 193.184 277.624 193.376 278.552 193.76C279.512 194.144 280.328 194.688 281 195.392C281.672 196.064 282.184 196.88 282.536 197.84C282.92 198.768 283.112 199.792 283.112 200.912C283.112 202.256 282.92 203.44 282.536 204.464C282.152 205.456 281.624 206.288 280.952 206.96C280.312 207.632 279.544 208.144 278.648 208.496C277.784 208.816 276.872 208.976 275.912 208.976C274.888 208.976 273.944 208.832 273.08 208.544C272.248 208.224 271.512 207.792 270.872 207.248C270.264 206.672 269.768 206.016 269.384 205.28C269.032 204.512 268.824 203.696 268.76 202.832H264.68C264.712 204.368 265.016 205.744 265.592 206.96C266.168 208.176 266.952 209.2 267.944 210.032C268.936 210.832 270.072 211.456 271.352 211.904C272.664 212.32 274.056 212.528 275.528 212.528C277.512 212.528 279.24 212.224 280.712 211.616C282.216 210.976 283.464 210.128 284.456 209.072C285.448 208.016 286.184 206.816 286.664 205.472C287.176 204.096 287.432 202.688 287.432 201.248C287.432 199.296 287.144 197.6 286.568 196.16C285.992 194.688 285.208 193.472 284.216 192.512C283.224 191.52 282.056 190.784 280.712 190.304C279.368 189.824 277.944 189.584 276.44 189.584C275.288 189.584 274.12 189.792 272.936 190.208C271.784 190.592 270.84 191.2 270.104 192.032L270.008 191.936L271.832 182.144H285.56Z" fill="black"/>
<path d="M334.872 186.656H338.952C338.696 183.84 337.736 181.696 336.072 180.224C334.408 178.72 332.168 177.968 329.352 177.968C326.92 177.968 324.904 178.48 323.304 179.504C321.704 180.528 320.424 181.888 319.464 183.584C318.504 185.28 317.816 187.232 317.4 189.44C317.016 191.616 316.824 193.872 316.824 196.208C316.824 198 316.952 199.856 317.208 201.776C317.496 203.696 318.056 205.456 318.888 207.056C319.72 208.656 320.904 209.968 322.44 210.992C323.976 212.016 326.008 212.528 328.536 212.528C330.68 212.528 332.472 212.176 333.912 211.472C335.384 210.736 336.552 209.824 337.416 208.736C338.312 207.616 338.952 206.384 339.336 205.04C339.72 203.696 339.912 202.4 339.912 201.152C339.912 199.584 339.672 198.128 339.192 196.784C338.712 195.44 338.024 194.272 337.128 193.28C336.264 192.288 335.176 191.52 333.864 190.976C332.584 190.4 331.128 190.112 329.496 190.112C327.64 190.112 325.992 190.464 324.552 191.168C323.144 191.872 321.96 193.008 321 194.576L320.904 194.48C320.936 193.168 321.064 191.76 321.288 190.256C321.512 188.752 321.912 187.36 322.488 186.08C323.096 184.768 323.928 183.696 324.984 182.864C326.04 182 327.432 181.568 329.16 181.568C330.792 181.568 332.104 182.032 333.096 182.96C334.088 183.888 334.68 185.12 334.872 186.656ZM328.728 193.712C329.88 193.712 330.888 193.92 331.752 194.336C332.616 194.752 333.336 195.312 333.912 196.016C334.488 196.688 334.904 197.504 335.16 198.464C335.448 199.392 335.592 200.384 335.592 201.44C335.592 202.432 335.432 203.392 335.112 204.32C334.824 205.216 334.392 206.016 333.816 206.72C333.24 207.424 332.52 207.984 331.656 208.4C330.824 208.784 329.848 208.976 328.728 208.976C327.608 208.976 326.6 208.784 325.704 208.4C324.84 207.984 324.104 207.44 323.496 206.768C322.92 206.096 322.472 205.296 322.152 204.368C321.832 203.44 321.672 202.448 321.672 201.392C321.672 200.336 321.816 199.344 322.104 198.416C322.424 197.456 322.888 196.64 323.496 195.968C324.104 195.264 324.84 194.72 325.704 194.336C326.568 193.92 327.576 193.712 328.728 193.712Z" fill="black"/>
<path d="M392.432 182.048V178.544H370.4V182.384H388.256C386.464 184.272 384.784 186.336 383.216 188.576C381.68 190.816 380.32 193.2 379.136 195.728C377.952 198.224 376.976 200.848 376.208 203.6C375.472 206.32 375.008 209.12 374.816 212H379.376C379.536 209.344 379.984 206.608 380.72 203.792C381.456 200.976 382.4 198.24 383.552 195.584C384.736 192.928 386.08 190.432 387.584 188.096C389.088 185.76 390.704 183.744 392.432 182.048Z" fill="black"/>
<path d="M420.44 186.8C420.44 185.936 420.6 185.184 420.92 184.544C421.24 183.904 421.656 183.36 422.168 182.912C422.712 182.464 423.352 182.128 424.088 181.904C424.824 181.68 425.592 181.568 426.392 181.568C428.056 181.568 429.416 182.016 430.472 182.912C431.56 183.776 432.104 185.072 432.104 186.8C432.104 188.528 431.576 189.872 430.52 190.832C429.464 191.792 428.12 192.272 426.488 192.272C425.656 192.272 424.872 192.16 424.136 191.936C423.4 191.712 422.76 191.376 422.216 190.928C421.672 190.48 421.24 189.92 420.92 189.248C420.6 188.544 420.44 187.728 420.44 186.8ZM416.12 186.656C416.12 188.192 416.552 189.616 417.416 190.928C418.28 192.208 419.432 193.136 420.872 193.712C418.952 194.384 417.48 195.472 416.456 196.976C415.432 198.448 414.92 200.192 414.92 202.208C414.92 203.936 415.208 205.456 415.784 206.768C416.392 208.048 417.208 209.12 418.232 209.984C419.288 210.848 420.52 211.488 421.928 211.904C423.336 212.32 424.856 212.528 426.488 212.528C428.056 212.528 429.528 212.304 430.904 211.856C432.28 211.408 433.464 210.752 434.456 209.888C435.48 208.992 436.28 207.904 436.856 206.624C437.464 205.344 437.768 203.872 437.768 202.208C437.768 200.096 437.272 198.32 436.28 196.88C435.288 195.408 433.768 194.352 431.72 193.712C433.16 193.072 434.296 192.128 435.128 190.88C435.992 189.6 436.424 188.192 436.424 186.656C436.424 185.568 436.232 184.512 435.848 183.488C435.464 182.432 434.856 181.504 434.024 180.704C433.224 179.872 432.168 179.216 430.856 178.736C429.544 178.224 427.96 177.968 426.104 177.968C424.792 177.968 423.528 178.16 422.312 178.544C421.128 178.928 420.072 179.488 419.144 180.224C418.216 180.96 417.48 181.872 416.936 182.96C416.392 184.016 416.12 185.248 416.12 186.656ZM419.24 202.4C419.24 201.408 419.416 200.512 419.768 199.712C420.152 198.912 420.664 198.224 421.304 197.648C421.976 197.072 422.744 196.64 423.608 196.352C424.504 196.032 425.448 195.872 426.44 195.872C427.4 195.872 428.296 196.048 429.128 196.4C429.992 196.72 430.744 197.168 431.384 197.744C432.024 198.32 432.52 199.008 432.872 199.808C433.256 200.576 433.448 201.424 433.448 202.352C433.448 203.312 433.272 204.192 432.92 204.992C432.6 205.792 432.12 206.496 431.48 207.104C430.872 207.68 430.136 208.144 429.272 208.496C428.44 208.816 427.512 208.976 426.488 208.976C424.376 208.976 422.632 208.4 421.256 207.248C419.912 206.064 419.24 204.448 419.24 202.4Z" fill="black"/>
</svg>
